<?xml version="1.0" encoding="utf-8"?>
<!-- Generator: Adobe Illustrator 21.0.0, SVG Export Plug-In . SVG Version: 6.00 Build 0)  -->
<svg version="1.1" id="Calque_1" xmlns="http://www.w3.org/2000/svg" xmlns:xlink="http://www.w3.org/1999/xlink" x="0px" y="0px"
	 viewBox="0 0 500 500" style="enable-background:new 0 0 500 500;" xml:space="preserve">
<style type="text/css">
	.st0{fill:#3498DB;}
	.st1{opacity:0.24;fill:#ECF0F1;}
	.st2{fill:none;stroke:#ECF0F1;stroke-width:12;stroke-miterlimit:10;}
	.st3{fill:#2980B9;stroke:#FFFFFF;stroke-width:8;stroke-miterlimit:10;}
	.st4{fill:#2C3E50;stroke:#FFFFFF;stroke-width:12;stroke-miterlimit:10;}
	.st5{fill:#FFFFFF;}
</style>
<circle class="st0" cx="261.4" cy="267.7" r="186.2"/>
<path class="st1" d="M407.5,172.6c0-8.2-1-16.2-3-24c-34.2-41-85.6-67.1-143.1-67.1c-102.8,0-186.2,83.4-186.2,186.2
	c0,16.4,2.1,32.3,6.1,47.4c26.7,6.5,55.7,10.1,85.9,10.1C299.9,325.3,407.5,256.9,407.5,172.6z"/>
<line class="st2" x1="71" y1="396.6" x2="218.6" y2="221.4"/>
<line class="st2" x1="406.2" y1="121.4" x2="378.7" y2="309"/>
<line class="st2" x1="217.3" y1="220.4" x2="246.7" y2="390.2"/>
<line class="st2" x1="378.7" y1="309" x2="218.6" y2="221.4"/>
<line class="st2" x1="248.6" y1="391.6" x2="378.7" y2="309"/>
<circle class="st3" cx="72" cy="398.4" r="67"/>
<circle class="st4" cx="406.8" cy="122.4" r="88.2"/>
<circle class="st5" cx="248.4" cy="391.9" r="44.1"/>
<circle class="st5" cx="378.6" cy="307.9" r="33.5"/>
<circle class="st5" cx="217.3" cy="220.4" r="42.5"/>
</svg>
